<svg width="24" height="22" viewBox="0 0 24 22" fill="none" xmlns="http://www.w3.org/2000/svg">
<path d="M20.5117 3.40672C20.001 2.89572 19.3946 2.49036 18.7271 2.2138C18.0596 1.93724 17.3442 1.79489 16.6217 1.79489C15.8993 1.79489 15.1839 1.93724 14.5164 2.2138C13.8489 2.49036 13.2425 2.89572 12.7317 3.40672L11.6717 4.46672L10.6117 3.40672C9.58006 2.37502 8.18078 1.79543 6.72175 1.79543C5.26272 1.79543 3.86344 2.37502 2.83175 3.40672C1.80006 4.43841 1.22046 5.83768 1.22046 7.29672C1.22046 8.75575 1.80006 10.155 2.83175 11.1867L3.89175 12.2467L11.6717 20.0267L19.4517 12.2467L20.5117 11.1867C21.0227 10.676 21.4281 10.0695 21.7047 9.40207C21.9812 8.73461 22.1236 8.0192 22.1236 7.29672C22.1236 6.57423 21.9812 5.85882 21.7047 5.19136C21.4281 4.5239 21.0227 3.91747 20.5117 3.40672V3.40672Z" stroke="#BFBFBF" stroke-width="2" stroke-linecap="round" stroke-linejoin="round"/>
</svg>
