<svg width="21" height="21" viewBox="0 0 21 21" fill="none" xmlns="http://www.w3.org/2000/svg">
<path d="M19.6718 10.2967C19.6752 11.6166 19.3668 12.9186 18.7718 14.0967C18.0662 15.5085 16.9815 16.6959 15.6392 17.526C14.2969 18.3561 12.75 18.7961 11.1718 18.7967C9.85188 18.8002 8.54987 18.4918 7.37175 17.8967L1.67175 19.7967L3.57175 14.0967C2.97668 12.9186 2.66831 11.6166 2.67175 10.2967C2.67236 8.71848 3.11236 7.17157 3.94247 5.82927C4.77258 4.48697 5.96001 3.40229 7.37175 2.69672C8.54987 2.10165 9.85188 1.79328 11.1718 1.79672H11.6718C13.7561 1.91171 15.7248 2.79148 17.2009 4.26758C18.677 5.74368 19.5568 7.71237 19.6718 9.79672V10.2967Z" stroke="#BFBFBF" stroke-width="2" stroke-linecap="round" stroke-linejoin="round"/>
</svg>
