<svg width="15" height="15" viewBox="0 0 15 15" fill="none" xmlns="http://www.w3.org/2000/svg">
<g clip-path="url(#clip0_1_2655)">
<path d="M12.9218 6.1299C12.9218 10.2132 7.67175 13.7132 7.67175 13.7132C7.67175 13.7132 2.42175 10.2132 2.42175 6.1299C2.42175 4.73751 2.97488 3.40215 3.95944 2.41759C4.94401 1.43302 6.27937 0.879898 7.67175 0.879898C9.06414 0.879898 10.3995 1.43302 11.3841 2.41759C12.3686 3.40215 12.9218 4.73751 12.9218 6.1299Z" stroke="white" stroke-linecap="round" stroke-linejoin="round"/>
<path d="M7.67175 7.8799C8.63825 7.8799 9.42175 7.0964 9.42175 6.1299C9.42175 5.1634 8.63825 4.3799 7.67175 4.3799C6.70525 4.3799 5.92175 5.1634 5.92175 6.1299C5.92175 7.0964 6.70525 7.8799 7.67175 7.8799Z" stroke="white" stroke-linecap="round" stroke-linejoin="round"/>
</g>
<defs>
<clipPath id="clip0_1_2655">
<rect width="14" height="14" fill="white" transform="translate(0.671753 0.296722)"/>
</clipPath>
</defs>
</svg>
