<svg width="25" height="25" viewBox="0 0 25 25" fill="none" xmlns="http://www.w3.org/2000/svg">
<path d="M6.67175 2.20349L3.67175 6.20349V20.2035C3.67175 20.7339 3.88247 21.2426 4.25754 21.6177C4.63261 21.9928 5.14132 22.2035 5.67175 22.2035H19.6718C20.2022 22.2035 20.7109 21.9928 21.086 21.6177C21.461 21.2426 21.6718 20.7339 21.6718 20.2035V6.20349L18.6718 2.20349H6.67175Z" stroke="#818AF9" stroke-width="2" stroke-linecap="round" stroke-linejoin="round"/>
<path d="M3.67175 6.20349H21.6718" stroke="#818AF9" stroke-width="2" stroke-linecap="round" stroke-linejoin="round"/>
<path d="M16.6718 10.2035C16.6718 11.2644 16.2503 12.2818 15.5002 13.0319C14.75 13.7821 13.7326 14.2035 12.6718 14.2035C11.6109 14.2035 10.5935 13.7821 9.84333 13.0319C9.09318 12.2818 8.67175 11.2644 8.67175 10.2035" stroke="#818AF9" stroke-width="2" stroke-linecap="round" stroke-linejoin="round"/>
</svg>
