<svg width="11" height="11" viewBox="0 0 11 11" fill="none" xmlns="http://www.w3.org/2000/svg">
<g clip-path="url(#clip0_1_2663)">
<path d="M9.18192 10.2967C8.99275 10.2967 8.80847 10.2577 8.62908 10.1795C8.44969 10.1014 8.3176 10.0265 8.2328 9.95492C8.148 9.88331 8.04689 9.78891 7.92947 9.67172C7.51199 10.0884 6.88577 10.2967 6.0508 10.2967H1.35413C1.26933 10.2967 1.19594 10.2658 1.13397 10.2039C1.072 10.1421 1.04102 10.0689 1.04102 9.98422C1.04102 9.89959 1.072 9.82634 1.13397 9.7645C1.19594 9.70265 1.26933 9.67172 1.35413 9.67172C1.43241 9.67172 1.52536 9.59848 1.63299 9.452C1.74063 9.30551 1.84337 9.11996 1.94121 8.89535C2.03906 8.67075 2.12223 8.40219 2.19072 8.08969C2.25922 7.77719 2.29346 7.4712 2.29346 7.17172C2.29346 7.00245 2.27226 6.85922 2.22986 6.74203C2.18746 6.62485 2.13528 6.52394 2.07331 6.4393C2.01134 6.35466 1.94937 6.26189 1.8874 6.16098C1.82543 6.06007 1.77324 5.91033 1.73084 5.71176C1.68844 5.51319 1.66724 5.27068 1.66724 4.98422C1.66724 4.81495 1.68844 4.6766 1.73084 4.56918C1.77324 4.46176 1.82543 4.38038 1.8874 4.32504C1.94937 4.2697 2.01134 4.21274 2.07331 4.15414C2.13528 4.09555 2.18746 4.00603 2.22986 3.88559C2.27226 3.76515 2.29346 3.61052 2.29346 3.42172C2.29346 3.00506 2.08472 2.79672 1.66724 2.79672C1.3737 2.79672 1.09157 2.68442 0.820861 2.45981C0.55015 2.2352 0.414795 2.035 0.414795 1.85922C0.414795 1.70948 0.484919 1.56788 0.625167 1.43442C0.765415 1.30095 0.904032 1.23422 1.04102 1.23422C1.15191 1.23422 1.25465 1.20167 1.34924 1.13657C1.44382 1.07146 1.53352 0.993337 1.61832 0.902191C1.70312 0.811045 1.79607 0.719899 1.89718 0.628754C1.99829 0.537608 2.13528 0.459483 2.30814 0.394379C2.48101 0.329274 2.68485 0.296722 2.91969 0.296722C3.22628 0.296722 3.47579 0.33253 3.66822 0.404144C3.86065 0.475759 4.00416 0.568532 4.09875 0.682465C4.19333 0.796397 4.26998 0.955902 4.32869 1.16098C4.3874 1.36606 4.42817 1.56951 4.451 1.77133C4.47383 1.97315 4.5146 2.23032 4.57331 2.54282C4.63202 2.85532 4.70703 3.14828 4.79836 3.42172C4.9223 3.79282 5.21421 4.26645 5.67409 4.84262C6.13397 5.41879 6.46829 5.77849 6.67703 5.92172C7.51199 6.47511 7.92947 7.30844 7.92947 8.42172C7.92947 8.74073 8.11538 9.02882 8.4872 9.28598C8.85902 9.54314 9.29933 9.67172 9.80814 9.67172C9.97774 9.67172 10.1767 9.63917 10.405 9.57407C10.3463 9.80193 10.2028 9.97934 9.97448 10.1063C9.74617 10.2332 9.48198 10.2967 9.18192 10.2967ZM3.54591 7.17172C3.52634 7.27589 3.50025 7.41098 3.46763 7.577C3.43502 7.74301 3.36489 7.99529 3.25726 8.33383C3.14963 8.67237 3.0371 8.91 2.91969 9.04672H4.17213C4.17213 8.76677 4.13952 8.52426 4.07429 8.31918C4.00905 8.1141 3.9373 7.96599 3.85902 7.87485C3.78074 7.7837 3.70899 7.67791 3.64376 7.55746C3.57853 7.43702 3.54591 7.30844 3.54591 7.17172Z" fill="#818AF9"/>
</g>
<defs>
<clipPath id="clip0_1_2663">
<rect width="10" height="10" fill="white" transform="translate(0.410767 0.296722)"/>
</clipPath>
</defs>
</svg>
