<svg width="10" height="11" viewBox="0 0 10 11" fill="none" xmlns="http://www.w3.org/2000/svg">
<g clip-path="url(#clip0_1_2661)">
<path d="M8.78654 5.29672C8.78654 5.50506 8.89058 5.92172 9.09865 6.54672C9.30672 7.17172 9.41076 7.58839 9.41076 7.79672C9.41076 8.2199 9.34736 8.62029 9.22057 8.99789C9.09377 9.3755 8.90846 9.68637 8.66462 9.93051C8.42079 10.1747 8.14932 10.2967 7.85022 10.2967H3.48072C3.39619 10.2967 3.32304 10.2658 3.26127 10.2039C3.1995 10.1421 3.16861 10.0689 3.16861 9.98422C3.16861 9.89959 3.1995 9.82634 3.26127 9.7645C3.32304 9.70265 3.39619 9.67172 3.48072 9.67172C3.57175 9.67172 3.64653 9.64242 3.70505 9.58383C3.76357 9.52524 3.79283 9.45037 3.79283 9.35922C3.79283 9.18995 3.7278 8.99301 3.59776 8.7684C3.46771 8.54379 3.31166 8.31267 3.1296 8.07504C2.94753 7.83741 2.76547 7.59164 2.58341 7.33774C2.40135 7.08383 2.24529 6.80388 2.11525 6.49789C1.9852 6.1919 1.92018 5.89568 1.92018 5.60922C1.92018 5.12094 2.11525 4.71729 2.50538 4.39828C2.42736 4.16391 2.23229 4.04672 1.92018 4.04672C1.73162 4.04672 1.53492 3.97999 1.3301 3.84653C1.12528 3.71306 0.964353 3.57309 0.847313 3.42661C0.730273 3.28012 0.671753 3.17433 0.671753 3.10922C0.671753 3.02459 0.702639 2.95134 0.76441 2.8895C0.826181 2.82765 0.899331 2.79672 0.98386 2.79672C1.03588 2.79672 1.09115 2.75115 1.14967 2.66C1.20819 2.56886 1.27484 2.45493 1.34961 2.31821C1.42439 2.18149 1.51054 2.04314 1.60807 1.90317C1.70561 1.76319 1.83565 1.63299 1.99821 1.51254C2.16076 1.3921 2.34283 1.30909 2.5444 1.26352V0.296722C2.69395 0.296722 2.86951 0.412282 3.07108 0.643402C3.27265 0.874522 3.40269 1.11378 3.46121 1.36118C3.77332 1.49138 4.01065 1.71762 4.17321 2.03989C4.33576 2.36215 4.41704 2.7186 4.41704 3.10922C4.41704 3.29802 4.45768 3.47706 4.53896 3.64633C4.62023 3.8156 4.73565 3.96697 4.8852 4.10043C5.03475 4.2339 5.15667 4.33481 5.25095 4.40317C5.34523 4.47153 5.4639 4.54802 5.60695 4.63266C5.63296 4.65219 5.65246 4.66521 5.66547 4.67172C6.0426 4.88657 6.35471 5.0949 6.60179 5.29672C7.05044 5.66782 7.4227 6.13331 7.71855 6.69321C8.0144 7.2531 8.16233 7.72511 8.16233 8.10922C8.16233 8.13526 8.16558 8.16456 8.17208 8.19711C8.17858 8.22966 8.20784 8.27524 8.25986 8.33383C8.31188 8.39243 8.3834 8.42172 8.47443 8.42172C8.56547 8.42172 8.64024 8.37127 8.69876 8.27035C8.75728 8.16944 8.78654 8.01157 8.78654 7.79672C8.78654 7.56886 8.74428 7.34099 8.65975 7.11313C8.57522 6.88526 8.47118 6.66879 8.34764 6.46371C8.2241 6.25864 8.10056 6.04542 7.97701 5.82407C7.85347 5.60271 7.74944 5.33741 7.66491 5.02817C7.58038 4.71892 7.53811 4.39177 7.53811 4.04672C7.53811 3.73422 7.66816 3.44776 7.92825 3.18735C8.18834 2.92693 8.47443 2.79672 8.78654 2.79672C8.9621 2.79672 9.11003 2.85694 9.23032 2.97739C9.35061 3.09783 9.41076 3.24594 9.41076 3.42172C9.41076 3.52589 9.39125 3.61866 9.35224 3.70004C9.31322 3.78142 9.26283 3.85629 9.20106 3.92465C9.13929 3.99301 9.10515 4.0337 9.09865 4.04672C8.89058 4.39177 8.78654 4.80844 8.78654 5.29672Z" fill="#818AF9"/>
</g>
<defs>
<clipPath id="clip0_1_2661">
<rect width="8.739" height="10" fill="white" transform="translate(0.671753 0.296722)"/>
</clipPath>
</defs>
</svg>
