<svg width="18" height="15" viewBox="0 0 18 15" fill="none" xmlns="http://www.w3.org/2000/svg">
<path d="M3.73112 1.01783C3.65681 0.934056 3.5666 0.865866 3.46574 0.817212C3.36487 0.768558 3.25535 0.740408 3.14353 0.734392C3.0317 0.728376 2.9198 0.744614 2.81429 0.782166C2.70879 0.819718 2.61179 0.877836 2.52891 0.953153C2.44604 1.02847 2.37893 1.11949 2.33149 1.22093C2.28405 1.32237 2.25722 1.43222 2.25254 1.5441C2.24787 1.65599 2.26545 1.7677 2.30426 1.87274C2.34307 1.97779 2.40235 2.07408 2.47866 2.15605L3.607 3.40076C1.17753 5.01853 0.123227 7.34011 0.0724515 7.44942C0.0246752 7.55774 0 7.67482 0 7.79321C0 7.9116 0.0246752 8.02869 0.0724515 8.137C0.0985446 8.19483 0.716316 9.56578 2.08162 10.9304C3.90672 12.7534 6.20785 13.7167 8.74663 13.7167C9.98051 13.7235 11.2033 13.4838 12.3432 13.0115L13.76 14.57C13.9118 14.733 14.1216 14.8296 14.3441 14.8389C14.5666 14.8482 14.7838 14.7694 14.9486 14.6197C15.1134 14.4699 15.2125 14.2612 15.2245 14.0388C15.2364 13.8165 15.1603 13.5984 15.0125 13.4318L3.73112 1.01783ZM8.74663 12.0242C6.65989 12.0242 4.83479 11.2675 3.3228 9.77593C2.72806 9.18704 2.2163 8.51989 1.80165 7.79286C2.1733 7.1363 3.12675 5.68426 4.76356 4.66945L11.1169 11.6589C10.3507 11.9035 9.55093 12.0268 8.74663 12.0242ZM17.4208 8.137C17.3954 8.19413 16.7861 9.54744 15.4462 10.8986C15.3695 10.9838 15.2762 11.0525 15.1722 11.1005C15.0681 11.1486 14.9553 11.175 14.8407 11.1782C14.7262 11.1813 14.6121 11.1611 14.5056 11.1189C14.399 11.0766 14.3021 11.0132 14.2208 10.9324C14.1395 10.8516 14.0755 10.7551 14.0326 10.6487C13.9897 10.5424 13.9689 10.4285 13.9714 10.3139C13.9739 10.1993 13.9996 10.0864 14.047 9.98204C14.0945 9.87768 14.1626 9.78405 14.2473 9.70682C14.8102 9.13456 15.2957 8.49111 15.6916 7.79286C15.2772 7.06567 14.7654 6.39848 14.1705 5.80978C12.6578 4.31825 10.8334 3.56155 8.74663 3.56155C8.51039 3.56155 8.27414 3.57142 8.04142 3.59117C7.92927 3.60318 7.81585 3.59266 7.70783 3.56021C7.5998 3.52777 7.49936 3.47405 7.41239 3.40223C7.32542 3.33041 7.25369 3.24193 7.20141 3.14199C7.14913 3.04205 7.11736 2.93266 7.10795 2.82026C7.09855 2.70787 7.11171 2.59472 7.14666 2.48749C7.18162 2.38025 7.23765 2.28108 7.31148 2.19581C7.3853 2.11053 7.47543 2.04088 7.57656 1.99094C7.67769 1.941 7.78779 1.91178 7.90037 1.90499C8.17752 1.88102 8.46455 1.86903 8.74663 1.86903C11.2854 1.86903 13.5865 2.83306 15.4102 4.65605C16.7748 6.02065 17.3926 7.39229 17.4187 7.44942C17.4668 7.55759 17.4918 7.6746 17.4922 7.79299C17.4926 7.91138 17.4683 8.02854 17.4208 8.137Z" fill="#A4A4A4"/>
</svg>
