<svg width="19" height="19" viewBox="0 0 19 19" fill="none" xmlns="http://www.w3.org/2000/svg">
<path d="M17.3901 2.64091L18.0398 2.00034C18.2122 1.82803 18.309 1.59432 18.309 1.35062C18.309 1.10693 18.2122 0.873218 18.0398 0.700901C17.8675 0.528584 17.6338 0.431778 17.3901 0.431778C17.1464 0.431778 16.9127 0.528584 16.7404 0.700901L15.4593 1.99119L12.8695 4.58093L7.09524 10.3461C6.14907 9.72181 5.00485 9.47101 3.88431 9.64225C2.76377 9.81349 1.74668 10.3946 1.03013 11.2729C0.313576 12.1513 -0.0514261 13.2643 0.0058485 14.3964C0.0631231 15.5285 0.538597 16.5991 1.34014 17.4006C2.14168 18.2022 3.21222 18.6776 4.34432 18.7349C5.47642 18.7922 6.58948 18.4272 7.46783 17.7106C8.34617 16.9941 8.92726 15.977 9.0985 14.8564C9.26974 13.7359 9.01894 12.5917 8.39469 11.6455L13.5101 6.52094L15.4501 8.4701C15.5354 8.55483 15.6366 8.62191 15.7479 8.66753C15.8591 8.71315 15.9783 8.73642 16.0985 8.73599C16.2187 8.73557 16.3377 8.71146 16.4486 8.66506C16.5596 8.61865 16.6603 8.55085 16.745 8.46553C16.8297 8.38021 16.8968 8.27903 16.9424 8.16778C16.988 8.05653 17.0113 7.93739 17.0109 7.81715C17.0104 7.69691 16.9863 7.57793 16.9399 7.467C16.8935 7.35608 16.8257 7.25538 16.7404 7.17066L14.8004 5.23065L16.0998 3.94036L16.7404 4.58093C16.8251 4.66625 16.9258 4.73405 17.0367 4.78046C17.1477 4.82686 17.2666 4.85097 17.3869 4.85139C17.5071 4.85182 17.6263 4.82855 17.7375 4.78293C17.8488 4.73731 17.9499 4.67022 18.0353 4.5855C18.1206 4.50078 18.1884 4.40008 18.2348 4.28916C18.2812 4.17823 18.3053 4.05926 18.3057 3.93902C18.3062 3.81878 18.2829 3.69963 18.2373 3.58838C18.1917 3.47713 18.1246 3.37596 18.0398 3.29064L17.3901 2.64091ZM4.57872 16.9073C4.03575 16.9073 3.50497 16.7463 3.05351 16.4447C2.60205 16.143 2.25018 15.7142 2.04239 15.2126C1.83461 14.711 1.78024 14.159 1.88617 13.6264C1.9921 13.0939 2.25356 12.6047 2.6375 12.2208C3.02143 11.8369 3.5106 11.5754 4.04314 11.4695C4.57567 11.3635 5.12766 11.4179 5.6293 11.6257C6.13094 11.8335 6.5597 12.1854 6.86135 12.6368C7.16301 13.0883 7.32402 13.6191 7.32402 14.162C7.32402 14.8901 7.03478 15.5884 6.51994 16.1033C6.0051 16.6181 5.30682 16.9073 4.57872 16.9073Z" fill="#A4A4A4"/>
</svg>
