<svg width="18" height="17" viewBox="0 0 18 17" fill="none" xmlns="http://www.w3.org/2000/svg">
<path d="M17.2883 15.7905C16.0165 13.5917 14.0565 12.015 11.7691 11.2676C12.9006 10.5941 13.7796 9.56774 14.2713 8.34625C14.763 7.12476 14.8401 5.77564 14.4908 4.50608C14.1415 3.23652 13.3851 2.11671 12.3378 1.31863C11.2905 0.520549 10.0102 0.0883198 8.69345 0.0883198C7.37672 0.0883198 6.09639 0.520549 5.04909 1.31863C4.00178 2.11671 3.2454 3.23652 2.89612 4.50608C2.54683 5.77564 2.62395 7.12476 3.11562 8.34625C3.6073 9.56774 4.48634 10.5941 5.61777 11.2676C3.33042 12.0142 1.37043 13.5909 0.0985726 15.7905C0.0519311 15.8666 0.0209942 15.9512 0.00758707 16.0394C-0.00582004 16.1276 -0.00142575 16.2176 0.0205107 16.3041C0.0424471 16.3906 0.0814814 16.4718 0.13531 16.5429C0.189139 16.614 0.256672 16.6737 0.333925 16.7183C0.411178 16.7629 0.496586 16.7916 0.58511 16.8027C0.673634 16.8138 0.76348 16.807 0.849348 16.7828C0.935216 16.7586 1.01537 16.7175 1.08507 16.6618C1.15477 16.6061 1.21262 16.537 1.25519 16.4586C2.82852 13.7395 5.60942 12.1161 8.69345 12.1161C11.7775 12.1161 14.5584 13.7395 16.1317 16.4586C16.1743 16.537 16.2321 16.6061 16.3018 16.6618C16.3715 16.7175 16.4517 16.7586 16.5376 16.7828C16.6234 16.807 16.7133 16.8138 16.8018 16.8027C16.8903 16.7916 16.9757 16.7629 17.053 16.7183C17.1302 16.6737 17.1978 16.614 17.2516 16.5429C17.3054 16.4718 17.3445 16.3906 17.3664 16.3041C17.3883 16.2176 17.3927 16.1276 17.3793 16.0394C17.3659 15.9512 17.335 15.8666 17.2883 15.7905ZM4.01688 6.10333C4.01688 5.17839 4.29115 4.27423 4.80502 3.50517C5.31889 2.73611 6.04927 2.1367 6.90381 1.78274C7.75834 1.42878 8.69864 1.33617 9.60581 1.51662C10.513 1.69706 11.3463 2.14246 12.0003 2.79649C12.6543 3.45053 13.0997 4.28381 13.2802 5.19098C13.4606 6.09815 13.368 7.03845 13.014 7.89298C12.6601 8.74752 12.0607 9.4779 11.2916 9.99177C10.5226 10.5056 9.61839 10.7799 8.69345 10.7799C7.45356 10.7786 6.26482 10.2855 5.38808 9.40871C4.51134 8.53197 4.0182 7.34323 4.01688 6.10333Z" fill="#A4A4A4"/>
</svg>
